<svg width="300" height="300" viewBox="0 0 558 472" fill="none" xmlns="http://www.w3.org/2000/svg">
<path d="M130.015 34.0527H162.318" stroke="#E6BA71" stroke-width="3" stroke-miterlimit="10" stroke-linecap="round"/>
<path d="M130.015 43.363H162.318" stroke="#E6BA71" stroke-width="3" stroke-miterlimit="10" stroke-linecap="round"/>
<path d="M130.015 52.6736H162.318" stroke="#E6BA71" stroke-width="3" stroke-miterlimit="10" stroke-linecap="round"/>
<path d="M260.728 347.235C356.614 347.235 434.346 269.504 434.346 173.618C434.346 77.7313 356.614 0 260.728 0C164.842 0 87.1103 77.7313 87.1103 173.618C87.1103 269.504 164.842 347.235 260.728 347.235Z" fill="#ECE5D2"/>
<path d="M557.808 192.149V173.958C557.808 170.489 556.43 167.162 553.977 164.709C551.525 162.256 548.198 160.878 544.729 160.878H498.563C496.845 160.878 495.144 160.54 493.558 159.883C491.971 159.225 490.529 158.262 489.314 157.047C488.1 155.833 487.136 154.391 486.479 152.804C485.822 151.217 485.483 149.517 485.483 147.799V129.608C485.483 127.89 485.822 126.189 486.479 124.602C487.136 123.016 488.1 121.574 489.314 120.359C490.529 119.145 491.971 118.181 493.558 117.524C495.144 116.867 496.845 116.528 498.563 116.528H500.02C503.489 116.528 506.816 115.15 509.269 112.697C511.722 110.245 513.1 106.918 513.1 103.449V85.2577C513.1 81.7888 511.722 78.462 509.269 76.0091C506.816 73.5562 503.489 72.1782 500.02 72.1782H88.1133C84.6444 72.1782 81.3176 73.5562 78.8648 76.0091C76.4119 78.462 75.0339 81.7888 75.0339 85.2577V103.449C75.0339 106.918 76.4119 110.245 78.8648 112.697C81.3176 115.15 84.6444 116.528 88.1133 116.528C89.8309 116.528 91.5317 116.867 93.1186 117.524C94.7055 118.181 96.1474 119.145 97.3619 120.359C98.5764 121.574 99.5399 123.016 100.197 124.602C100.854 126.189 101.193 127.89 101.193 129.608V147.799C101.193 149.517 100.854 151.217 100.197 152.804C99.5399 154.391 98.5764 155.833 97.3619 157.047C96.1474 158.262 94.7055 159.225 93.1186 159.883C91.5317 160.54 89.8309 160.878 88.1133 160.878H37.5339C34.0651 160.878 30.7383 162.256 28.2854 164.709C25.8325 167.162 24.4545 170.489 24.4545 173.958V192.149C24.4545 195.618 25.8325 198.945 28.2854 201.398C30.7383 203.85 34.0651 205.228 37.5339 205.228H57.3805C59.0981 205.228 60.799 205.567 62.3858 206.224C63.9727 206.881 65.4146 207.845 66.6291 209.059C67.8437 210.274 68.8071 211.716 69.4644 213.303C70.1217 214.889 70.46 216.59 70.46 218.308V236.499C70.46 238.217 70.1217 239.918 69.4644 241.504C68.8071 243.091 67.8436 244.533 66.6291 245.748C65.4146 246.962 63.9727 247.926 62.3858 248.583C60.7989 249.24 59.0981 249.579 57.3805 249.579H57.3325C53.8637 249.579 50.5369 250.957 48.084 253.409C45.6311 255.862 44.2531 259.189 44.2531 262.658V280.849C44.2531 282.567 44.5915 284.268 45.2488 285.854C45.9061 287.441 46.8695 288.883 48.084 290.098C49.2986 291.312 50.7404 292.276 52.3273 292.933C53.9142 293.59 55.615 293.929 57.3326 293.929H60.204C63.6729 293.929 66.9997 295.307 69.4526 297.759C71.9054 300.212 73.2834 303.539 73.2834 307.008V325.199C73.2834 328.668 71.9054 331.995 69.4526 334.448C66.9997 336.901 63.6729 338.279 60.204 338.279H13.0794C9.61056 338.279 6.28375 339.657 3.83088 342.11C1.37801 344.562 0 347.889 0 351.358V369.549C0 373.018 1.37801 376.345 3.83088 378.798C6.28375 381.251 9.61056 382.629 13.0794 382.629H507.042C510.511 382.629 513.838 381.251 516.291 378.798C518.744 376.345 520.122 373.018 520.122 369.549V351.358C520.122 347.889 518.744 344.562 516.291 342.11C513.838 339.657 510.511 338.279 507.042 338.279H495.702C492.233 338.279 488.906 336.901 486.453 334.448C484 331.995 482.622 328.668 482.622 325.199V307.008C482.622 303.539 484 300.212 486.453 297.759C488.906 295.307 492.233 293.929 495.702 293.929H522.442C524.159 293.929 525.86 293.59 527.447 292.933C529.034 292.276 530.476 291.312 531.69 290.098C532.905 288.883 533.868 287.441 534.526 285.854C535.183 284.268 535.521 282.567 535.521 280.849V262.658C535.521 259.189 534.143 255.862 531.69 253.409C529.237 250.957 525.911 249.579 522.442 249.579H514.33C512.613 249.579 510.912 249.24 509.325 248.583C507.738 247.926 506.296 246.962 505.082 245.748C503.867 244.533 502.904 243.091 502.246 241.504C501.589 239.918 501.251 238.217 501.251 236.499V218.308C501.251 216.59 501.589 214.889 502.246 213.303C502.904 211.716 503.867 210.274 505.082 209.059C506.296 207.845 507.738 206.881 509.325 206.224C510.912 205.567 512.613 205.228 514.33 205.228H544.729C548.198 205.228 551.525 203.85 553.977 201.398C556.43 198.945 557.808 195.618 557.808 192.149Z" fill="#FCF5E5"/>
<path d="M142.6 165.949C142.698 170.022 142.684 174.091 142.629 178.158C142.613 180.192 142.555 182.225 142.517 184.259L142.341 190.356L142.103 196.452C142.001 198.484 141.922 200.516 141.799 202.546C141.576 206.608 141.313 210.668 140.936 214.725C140.835 210.652 140.849 206.583 140.904 202.516C140.92 200.482 140.979 198.449 141.017 196.415L141.195 190.317L141.434 184.222C141.535 182.19 141.616 180.158 141.738 178.128C141.961 174.066 142.224 170.006 142.6 165.949Z" fill="#FBA001"/>
<path d="M186.698 181.396C184.823 184.822 182.853 188.188 180.849 191.533C179.857 193.211 178.829 194.867 177.817 196.533L174.731 201.5L171.593 206.434C170.528 208.067 169.482 209.711 168.399 211.333C166.252 214.588 164.071 217.821 161.794 220.994C163.667 217.567 165.637 214.2 167.641 210.856C168.633 209.178 169.662 207.522 170.673 205.855L173.76 200.889L176.9 195.956C177.964 194.323 179.012 192.679 180.094 191.058C182.241 187.803 184.422 184.569 186.698 181.396Z" fill="#FBA001"/>
<path d="M165.767 170.998C164.794 174.973 163.713 178.914 162.593 182.844C162.043 184.812 161.455 186.768 160.884 188.73L159.114 194.597L157.285 200.446C156.654 202.389 156.045 204.339 155.393 206.275C154.113 210.156 152.793 214.024 151.365 217.859C152.337 213.884 153.417 209.942 154.537 206.012C155.087 204.044 155.677 202.089 156.246 200.126L158.018 194.26L159.849 188.411C160.478 186.468 161.09 184.519 161.74 182.582C163.021 178.702 164.34 174.833 165.767 170.998Z" fill="#FBA001"/>
<path d="M168.369 204.065L145.171 197.093C143.055 196.457 140.825 197.657 140.189 199.773L137.281 209.45C136.645 211.565 137.844 213.796 139.96 214.432L163.158 221.404C165.274 222.04 167.505 220.84 168.14 218.724L171.049 209.047C171.685 206.932 170.485 204.701 168.369 204.065Z" fill="#F8B135"/>
<path d="M142.67 196.342C142.388 197.832 142.032 199.301 141.652 200.762C141.276 202.224 140.858 203.674 140.431 205.121C139.99 206.564 139.54 208.004 139.048 209.432C138.56 210.86 138.046 212.281 137.459 213.68C137.741 212.189 138.095 210.721 138.476 209.26C138.852 207.797 139.271 206.348 139.699 204.901C140.14 203.458 140.59 202.018 141.083 200.591C141.571 199.162 142.084 197.741 142.67 196.342Z" fill="#FBA001"/>
<path d="M146.147 197.386C145.864 198.877 145.509 200.346 145.129 201.807C144.753 203.269 144.334 204.719 143.907 206.166C143.467 207.609 143.017 209.049 142.524 210.476C142.036 211.905 141.522 213.326 140.936 214.725C141.217 213.234 141.572 211.765 141.952 210.305C142.328 208.842 142.747 207.393 143.175 205.946C143.617 204.503 144.066 203.063 144.559 201.636C145.047 200.207 145.561 198.786 146.147 197.386Z" fill="#FBA001"/>
<path d="M149.623 198.431C149.34 199.922 148.985 201.39 148.605 202.851C148.229 204.314 147.81 205.763 147.383 207.21C146.943 208.653 146.493 210.094 146.001 211.521C145.513 212.95 144.999 214.371 144.412 215.77C144.694 214.279 145.048 212.81 145.429 211.349C145.805 209.887 146.223 208.437 146.651 206.99C147.093 205.548 147.543 204.107 148.035 202.68C148.524 201.251 149.037 199.83 149.623 198.431Z" fill="#FBA001"/>
<path d="M153.099 199.476C152.817 200.967 152.462 202.435 152.081 203.896C151.705 205.359 151.287 206.808 150.86 208.255C150.419 209.698 149.969 211.139 149.477 212.566C148.989 213.995 148.475 215.416 147.888 216.815C148.17 215.324 148.525 213.855 148.905 212.394C149.281 210.932 149.7 209.482 150.128 208.035C150.569 206.593 151.019 205.152 151.512 203.725C152 202.296 152.513 200.875 153.099 199.476Z" fill="#FBA001"/>
<path d="M156.576 200.521C156.293 202.011 155.938 203.48 155.558 204.941C155.182 206.404 154.763 207.853 154.336 209.3C153.896 210.743 153.446 212.184 152.953 213.611C152.465 215.04 151.951 216.461 151.365 217.859C151.646 216.369 152.001 214.9 152.382 213.439C152.758 211.977 153.176 210.527 153.604 209.08C154.046 207.638 154.496 206.197 154.988 204.77C155.476 203.341 155.99 201.92 156.576 200.521Z" fill="#FBA001"/>
<path d="M160.052 201.566C159.769 203.056 159.415 204.525 159.034 205.986C158.658 207.448 158.24 208.898 157.813 210.345C157.372 211.788 156.922 213.228 156.43 214.656C155.942 216.084 155.428 217.505 154.841 218.904C155.123 217.414 155.477 215.945 155.858 214.484C156.234 213.021 156.653 211.572 157.08 210.125C157.522 208.682 157.972 207.242 158.465 205.815C158.953 204.386 159.466 202.965 160.052 201.566Z" fill="#FBA001"/>
<path d="M163.528 202.611C163.246 204.101 162.891 205.57 162.511 207.031C162.135 208.493 161.716 209.943 161.289 211.39C160.848 212.833 160.398 214.273 159.906 215.7C159.418 217.129 158.904 218.55 158.317 219.949C158.599 218.458 158.954 216.99 159.334 215.528C159.71 214.066 160.129 212.617 160.557 211.17C160.998 209.727 161.448 208.287 161.941 206.86C162.429 205.431 162.943 204.01 163.528 202.611Z" fill="#FBA001"/>
<path d="M167.005 203.656C166.722 205.146 166.367 206.615 165.987 208.076C165.611 209.538 165.192 210.988 164.765 212.435C164.325 213.878 163.875 215.318 163.382 216.745C162.895 218.174 162.381 219.595 161.794 220.994C162.076 219.503 162.43 218.035 162.811 216.573C163.187 215.111 163.605 213.662 164.033 212.215C164.475 210.772 164.925 209.332 165.417 207.905C165.905 206.476 166.419 205.055 167.005 203.656Z" fill="#FBA001"/>
<path d="M170.481 204.7C170.198 206.191 169.844 207.659 169.463 209.12C169.087 210.583 168.669 212.032 168.242 213.479C167.801 214.922 167.351 216.363 166.859 217.79C166.371 219.219 165.857 220.64 165.27 222.039C165.552 220.548 165.907 219.079 166.287 217.618C166.663 216.156 167.082 214.706 167.51 213.259C167.951 211.817 168.401 210.377 168.894 208.949C169.382 207.521 169.895 206.1 170.481 204.7Z" fill="#FBA001"/>
<path d="M140.652 198.152C143.268 198.784 145.87 199.462 148.458 200.188C151.049 200.903 153.627 201.661 156.203 202.427C158.775 203.206 161.343 203.996 163.899 204.827C166.458 205.649 169.003 206.517 171.534 207.433C168.918 206.802 166.315 206.124 163.728 205.399C161.137 204.684 158.558 203.926 155.983 203.159C153.412 202.378 150.843 201.589 148.287 200.757C145.728 199.936 143.183 199.067 140.652 198.152Z" fill="#FBA001"/>
<path d="M139.639 201.522C142.255 202.154 144.857 202.833 147.445 203.558C150.036 204.273 152.615 205.031 155.19 205.797C157.762 206.577 160.33 207.366 162.887 208.197C165.446 209.019 167.99 209.887 170.521 210.804C167.905 210.173 165.303 209.494 162.715 208.769C160.124 208.054 157.545 207.296 154.97 206.529C152.399 205.748 149.83 204.959 147.274 204.127C144.715 203.306 142.17 202.437 139.639 201.522Z" fill="#FBA001"/>
<path d="M138.626 204.892C141.242 205.524 143.844 206.203 146.432 206.928C149.023 207.643 151.601 208.401 154.177 209.167C156.749 209.947 159.318 210.736 161.873 211.568C164.433 212.389 166.978 213.258 169.508 214.174C166.892 213.543 164.29 212.865 161.702 212.139C159.111 211.424 156.533 210.666 153.957 209.899C151.386 209.119 148.817 208.329 146.261 207.498C143.702 206.676 141.157 205.807 138.626 204.892Z" fill="#FBA001"/>
<path d="M137.613 208.263C140.229 208.895 142.831 209.573 145.419 210.298C148.011 211.013 150.589 211.771 153.164 212.538C155.736 213.317 158.305 214.106 160.861 214.938C163.42 215.759 165.965 216.628 168.495 217.544C165.879 216.913 163.277 216.235 160.689 215.51C158.098 214.795 155.52 214.037 152.944 213.27C150.373 212.489 147.804 211.7 145.248 210.868C142.689 210.046 140.144 209.178 137.613 208.263Z" fill="#FBA001"/>
<path d="M136.6 211.633C139.216 212.265 141.818 212.943 144.406 213.669C146.998 214.384 149.576 215.141 152.151 215.908C154.723 216.687 157.292 217.477 159.848 218.308C162.407 219.13 164.952 219.998 167.482 220.914C164.866 220.283 162.264 219.605 159.676 218.88C157.085 218.165 154.507 217.407 151.931 216.64C149.36 215.859 146.791 215.07 144.235 214.238C141.676 213.417 139.131 212.548 136.6 211.633Z" fill="#FBA001"/>
<path d="M220.199 134.873C226.24 114.771 211.179 92.4759 191.076 86.4341C170.974 80.3924 146.116 90.6899 140.075 110.792C137.742 118.555 142.086 180.992 142.086 180.992L179.819 192.333C179.819 192.333 217.866 142.636 220.199 134.873Z" fill="#E6BA71"/>
<path d="M191.076 86.434C187.988 85.514 184.803 84.9608 181.586 84.7859C196.981 93.7527 206.998 112.346 201.882 129.368C199.549 137.131 161.503 186.828 161.503 186.828L179.819 192.333C179.819 192.333 217.866 142.636 220.199 134.873C226.24 114.771 211.179 92.4758 191.076 86.434Z" fill="#F8B135"/>
<path d="M199.903 90.291C197.122 88.6633 194.16 87.3688 191.076 86.4341C170.974 80.3924 146.116 90.6899 140.075 110.792C137.742 118.555 142.086 180.992 142.086 180.992L160.403 186.497C160.403 186.497 156.058 124.06 158.391 116.297C163.507 99.2749 182.115 89.2848 199.903 90.291Z" fill="#F8B135"/>
<path d="M191.076 86.4342C189.853 86.0666 188.614 85.7593 187.359 85.5125C205.606 92.98 218.546 113.792 212.872 132.671C210.539 140.434 172.493 190.131 172.493 190.131L179.819 192.333C179.819 192.333 217.866 142.636 220.199 134.873C226.24 114.771 211.179 92.4759 191.076 86.4342Z" fill="#FBA001"/>
<path d="M194.686 87.7144C193.503 87.2306 192.3 86.8039 191.076 86.4341C170.974 80.3924 146.116 90.6899 140.075 110.792C137.742 118.555 142.086 180.992 142.086 180.992L149.413 183.194C149.413 183.194 145.068 120.757 147.401 112.994C153.075 94.1151 175.345 83.8849 194.686 87.7144Z" fill="#FBA001"/>
<path d="M369.758 116.609C369.753 127.376 365.475 137.7 357.864 145.315C350.252 152.93 339.929 157.213 329.163 157.222H177.469C169.747 157.223 162.297 154.369 156.551 149.208C150.806 144.048 147.171 136.946 146.346 129.268C145.52 121.59 147.562 113.878 152.079 107.614C156.596 101.35 163.269 96.9777 170.815 95.3366C171.419 86.1995 175.471 77.6331 182.152 71.3707C188.832 65.1084 197.643 61.6179 206.8 61.6056C210.508 61.6058 214.192 62.1944 217.716 63.3495C223.061 53.0101 231.445 44.5557 241.74 39.1238C252.034 33.6919 263.745 31.543 275.297 32.9661C286.849 34.3893 297.689 39.3162 306.357 47.0842C315.025 54.8522 321.107 65.0885 323.783 76.4162C348.463 73.0086 369.758 92.47 369.758 116.609Z" fill="#A0E8ED"/>
<path d="M233.279 323.934C233.537 334.582 233.499 345.219 233.357 355.852C233.314 361.17 233.163 366.484 233.064 371.8L232.602 387.741L231.98 403.678C231.715 408.988 231.507 414.3 231.186 419.609C230.604 430.227 229.916 440.842 228.929 451.447C228.667 440.8 228.704 430.162 228.847 419.529C228.888 414.211 229.043 408.897 229.141 403.581L229.606 387.639L230.233 371.703C230.495 366.393 230.707 361.081 231.027 355.773C231.609 345.154 232.296 334.539 233.279 323.934Z" fill="#FBA001"/>
<path d="M348.563 364.315C343.663 373.272 338.512 382.072 333.274 390.816C330.678 395.203 327.991 399.532 325.347 403.889L317.279 416.873L309.074 429.771C306.291 434.04 303.555 438.339 300.725 442.578C295.113 451.088 289.412 459.541 283.458 467.835C288.354 458.876 293.504 450.075 298.743 441.332C301.338 436.945 304.028 432.617 306.67 428.259L314.741 415.277L322.949 402.381C325.731 398.111 328.47 393.814 331.299 389.574C336.912 381.065 342.612 372.612 348.563 364.315Z" fill="#FBA001"/>
<path d="M293.845 337.133C291.301 347.524 288.474 357.828 285.547 368.102C284.11 373.247 282.57 378.361 281.08 383.49L276.452 398.827L271.671 414.117C270.022 419.197 268.427 424.294 266.725 429.358C263.377 439.502 259.928 449.615 256.193 459.641C258.734 449.248 261.56 438.944 264.487 428.67C265.923 423.525 267.466 418.412 268.955 413.283L273.586 397.946L278.372 382.657C280.019 377.576 281.617 372.481 283.318 367.417C286.666 357.273 290.114 347.159 293.845 337.133Z" fill="#FBA001"/>
<path d="M306.831 425.439L233.818 403.495C231.702 402.859 229.471 404.058 228.836 406.174L217.515 443.84C216.879 445.955 218.079 448.186 220.195 448.822L293.208 470.766C295.324 471.402 297.555 470.202 298.19 468.086L309.511 430.421C310.147 428.305 308.947 426.074 306.831 425.439Z" fill="#F8B135"/>
<path d="M233.464 403.388C232.725 407.284 231.797 411.124 230.802 414.944C229.82 418.767 228.725 422.556 227.609 426.34C226.457 430.112 225.281 433.877 223.994 437.608C222.718 441.343 221.375 445.058 219.84 448.715C220.577 444.818 221.504 440.978 222.499 437.159C223.482 433.336 224.576 429.546 225.695 425.764C226.849 421.992 228.026 418.228 229.314 414.496C230.589 410.761 231.932 407.046 233.464 403.388Z" fill="#FBA001"/>
<path d="M242.552 406.119C241.813 410.016 240.885 413.856 239.89 417.675C238.908 421.498 237.814 425.288 236.697 429.071C235.546 432.843 234.369 436.608 233.082 440.34C231.806 444.074 230.463 447.789 228.929 451.447C229.665 447.55 230.592 443.71 231.587 439.89C232.57 436.067 233.665 432.278 234.783 428.495C235.938 424.724 237.113 420.959 238.401 417.228C239.677 413.493 241.02 409.778 242.552 406.119Z" fill="#FBA001"/>
<path d="M251.64 408.851C250.901 412.747 249.973 416.587 248.979 420.406C247.996 424.23 246.901 428.019 245.785 431.802C244.633 435.574 243.458 439.34 242.17 443.071C240.895 446.806 239.551 450.521 238.017 454.178C238.754 450.281 239.68 446.441 240.675 442.622C241.658 438.799 242.753 435.009 243.871 431.227C245.026 427.455 246.202 423.69 247.489 419.959C248.766 416.224 250.109 412.509 251.64 408.851Z" fill="#FBA001"/>
<path d="M260.728 411.582C259.989 415.479 259.061 419.318 258.067 423.138C257.084 426.961 255.99 430.751 254.874 434.533C253.722 438.306 252.546 442.071 251.258 445.802C249.983 449.537 248.639 453.252 247.105 456.909C247.841 453.012 248.769 449.173 249.763 445.353C250.746 441.53 251.841 437.74 252.96 433.958C254.114 430.187 255.29 426.422 256.578 422.691C257.854 418.955 259.196 415.24 260.728 411.582Z" fill="#FBA001"/>
<path d="M269.816 414.314C269.077 418.21 268.149 422.05 267.155 425.869C266.172 429.693 265.078 433.482 263.962 437.265C262.81 441.037 261.634 444.802 260.346 448.534C259.07 452.269 257.727 455.984 256.193 459.641C256.93 455.744 257.857 451.904 258.852 448.085C259.835 444.261 260.929 440.472 262.047 436.69C263.202 432.918 264.378 429.153 265.666 425.422C266.942 421.687 268.284 417.972 269.816 414.314Z" fill="#FBA001"/>
<path d="M278.904 417.045C278.165 420.942 277.237 424.781 276.243 428.601C275.26 432.424 274.166 436.214 273.05 439.996C271.898 443.769 270.722 447.533 269.434 451.265C268.159 455 266.815 458.715 265.281 462.372C266.018 458.475 266.944 454.635 267.94 450.816C268.922 446.993 270.017 443.203 271.135 439.421C272.29 435.65 273.466 431.884 274.754 428.153C276.03 424.418 277.373 420.703 278.904 417.045Z" fill="#FBA001"/>
<path d="M287.992 419.777C287.254 423.673 286.325 427.512 285.331 431.332C284.349 435.156 283.254 438.945 282.138 442.728C280.986 446.5 279.81 450.265 278.523 453.996C277.247 457.732 275.903 461.446 274.369 465.104C275.106 461.207 276.033 457.367 277.028 453.547C278.011 449.724 279.105 445.935 280.224 442.153C281.378 438.381 282.554 434.616 283.842 430.885C285.118 427.15 286.461 423.435 287.992 419.777Z" fill="#FBA001"/>
<path d="M297.08 422.508C296.341 426.405 295.414 430.244 294.419 434.064C293.437 437.887 292.342 441.676 291.226 445.459C290.074 449.232 288.898 452.996 287.61 456.728C286.335 460.463 284.991 464.177 283.458 467.835C284.194 463.938 285.121 460.098 286.116 456.279C287.099 452.456 288.193 448.666 289.312 444.884C290.466 441.113 291.642 437.347 292.93 433.616C294.206 429.881 295.549 426.166 297.08 422.508Z" fill="#FBA001"/>
<path d="M306.169 425.24C305.429 429.136 304.502 432.975 303.507 436.795C302.525 440.618 301.43 444.407 300.314 448.191C299.162 451.963 297.986 455.728 296.699 459.459C295.423 463.195 294.08 466.909 292.546 470.567C293.282 466.67 294.209 462.829 295.204 459.01C296.187 455.187 297.281 451.398 298.4 447.615C299.554 443.844 300.73 440.079 302.018 436.347C303.295 432.613 304.637 428.898 306.169 425.24Z" fill="#FBA001"/>
<path d="M228.188 408.121C235.027 409.773 241.829 411.546 248.595 413.442C255.368 415.311 262.109 417.293 268.842 419.296C275.565 421.334 282.28 423.397 288.962 425.572C295.652 427.719 302.305 429.99 308.921 432.385C302.081 430.735 295.278 428.962 288.513 427.066C281.739 425.197 274.999 423.215 268.267 421.21C261.545 419.169 254.829 417.106 248.147 414.931C241.458 412.783 234.804 410.513 228.188 408.121Z" fill="#FBA001"/>
<path d="M225.54 416.931C232.379 418.583 239.181 420.357 245.947 422.253C252.72 424.122 259.461 426.103 266.194 428.106C272.917 430.145 279.632 432.208 286.314 434.382C293.004 436.529 299.657 438.8 306.273 441.196C299.433 439.546 292.63 437.773 285.865 435.877C279.091 434.007 272.351 432.026 265.618 430.021C258.897 427.979 252.181 425.917 245.499 423.742C238.809 421.594 232.156 419.324 225.54 416.931Z" fill="#FBA001"/>
<path d="M222.892 425.742C229.731 427.394 236.533 429.168 243.299 431.064C250.072 432.933 256.812 434.914 263.546 436.917C270.269 438.956 276.984 441.018 283.666 443.193C290.356 445.34 297.009 447.611 303.625 450.006C296.785 448.356 289.982 446.583 283.216 444.687C276.443 442.818 269.703 440.837 262.97 438.831C256.249 436.79 249.533 434.727 242.851 432.552C236.161 430.405 229.508 428.134 222.892 425.742Z" fill="#FBA001"/>
<path d="M220.244 434.553C227.083 436.205 233.885 437.979 240.651 439.874C247.424 441.743 254.164 443.725 260.898 445.728C267.62 447.766 274.336 449.829 281.018 452.004C287.708 454.151 294.361 456.422 300.976 458.817C294.137 457.167 287.334 455.394 280.568 453.498C273.795 451.628 267.055 449.647 260.322 447.642C253.601 445.601 246.885 443.538 240.203 441.363C233.513 439.215 226.86 436.945 220.244 434.553Z" fill="#FBA001"/>
<path d="M217.596 443.364C224.435 445.015 231.237 446.789 238.003 448.685C244.776 450.554 251.516 452.535 258.25 454.538C264.972 456.577 271.688 458.64 278.37 460.814C285.06 462.961 291.713 465.232 298.328 467.627C291.489 465.978 284.686 464.205 277.921 462.309C271.147 460.439 264.407 458.458 257.674 456.452C250.952 454.411 244.237 452.349 237.555 450.174C230.865 448.026 224.212 445.756 217.596 443.364Z" fill="#FBA001"/>
<path d="M436.142 242.695C451.937 190.142 412.562 131.857 360.009 116.063C307.456 100.268 242.473 127.188 226.678 179.741C220.579 200.034 231.938 363.261 231.938 363.261L330.581 392.908C330.581 392.908 430.043 262.988 436.142 242.695Z" fill="#E6BA71"/>
<path d="M360.009 116.063C351.937 113.657 343.61 112.211 335.199 111.754C375.446 135.195 401.633 183.803 388.258 228.303C382.159 248.596 282.697 378.516 282.697 378.516L330.581 392.908C330.581 392.908 430.043 262.988 436.142 242.695C451.937 190.142 412.562 131.857 360.009 116.063Z" fill="#F8B135"/>
<path d="M383.083 126.145C375.814 121.89 368.07 118.506 360.009 116.063C307.456 100.268 242.473 127.188 226.678 179.741C220.579 200.034 231.938 363.261 231.938 363.261L279.822 377.652C279.822 377.652 268.463 214.426 274.562 194.132C287.937 149.632 336.582 123.515 383.083 126.145Z" fill="#F8B135"/>
<path d="M360.009 116.062C356.811 115.101 353.572 114.298 350.291 113.653C397.994 133.175 431.822 187.583 416.989 236.938C410.89 257.231 311.427 387.151 311.427 387.151L330.581 392.908C330.581 392.908 430.043 262.988 436.142 242.695C451.937 190.142 412.562 131.857 360.009 116.062Z" fill="#FBA001"/>
<path d="M369.445 119.409C366.354 118.145 363.209 117.029 360.009 116.063C307.456 100.268 242.473 127.188 226.678 179.741C220.579 200.034 231.938 363.261 231.938 363.261L251.091 369.018C251.091 369.018 239.733 205.791 245.832 185.498C260.665 136.142 318.883 109.398 369.445 119.409Z" fill="#FBA001"/>
<path d="M529.067 244.906C529.064 250.732 526.749 256.318 522.631 260.438C518.513 264.558 512.927 266.875 507.102 266.881H425.026C420.847 266.881 416.816 265.337 413.708 262.545C410.599 259.753 408.632 255.91 408.186 251.756C407.739 247.601 408.844 243.428 411.288 240.039C413.732 236.65 417.342 234.284 421.425 233.396C421.752 228.453 423.944 223.818 427.559 220.429C431.174 217.041 435.941 215.152 440.895 215.146C442.902 215.146 444.895 215.464 446.802 216.089C449.694 210.495 454.23 205.921 459.8 202.982C465.37 200.042 471.707 198.88 477.957 199.65C484.208 200.42 490.072 203.086 494.763 207.289C499.453 211.492 502.743 217.03 504.191 223.159C507.293 222.74 510.448 222.989 513.445 223.89C516.442 224.791 519.212 226.323 521.568 228.383C523.924 230.443 525.812 232.983 527.106 235.833C528.399 238.683 529.068 241.777 529.067 244.906Z" fill="#A0E8ED"/>
<path d="M218.651 310.772C218.649 316.598 216.334 322.184 212.216 326.304C208.097 330.425 202.512 332.742 196.687 332.747H114.61C110.432 332.747 106.401 331.203 103.293 328.411C100.184 325.619 98.2172 321.776 97.7705 317.622C97.3238 313.467 98.4287 309.295 100.873 305.906C103.317 302.516 106.927 300.151 111.01 299.263C111.337 294.319 113.529 289.684 117.144 286.295C120.759 282.907 125.526 281.019 130.48 281.012C132.486 281.012 134.48 281.33 136.386 281.955C139.279 276.361 143.815 271.787 149.385 268.848C154.955 265.909 161.291 264.746 167.542 265.516C173.792 266.286 179.657 268.952 184.347 273.155C189.037 277.358 192.328 282.896 193.776 289.025C196.877 288.606 200.033 288.856 203.03 289.757C206.027 290.658 208.796 292.19 211.153 294.249C213.509 296.309 215.397 298.849 216.69 301.699C217.984 304.549 218.652 307.643 218.651 310.772Z" fill="#A0E8ED"/>
<path d="M79.4829 202.903C87.1085 202.903 93.2902 196.721 93.2902 189.096C93.2902 181.47 87.1085 175.289 79.4829 175.289C71.8574 175.289 65.6756 181.47 65.6756 189.096C65.6756 196.721 71.8574 202.903 79.4829 202.903Z" fill="#E6BA71"/>
<path d="M91.9598 223.737C95.9138 223.737 99.1191 220.532 99.1191 216.578C99.1191 212.624 95.9138 209.418 91.9598 209.418C88.0058 209.418 84.8005 212.624 84.8005 216.578C84.8005 220.532 88.0058 223.737 91.9598 223.737Z" fill="#E6BA71"/>
<path d="M72.5395 245.182C76.4935 245.182 79.6988 241.977 79.6988 238.023C79.6988 234.069 76.4935 230.864 72.5395 230.864C68.5855 230.864 65.3801 234.069 65.3801 238.023C65.3801 241.977 68.5855 245.182 72.5395 245.182Z" fill="#E6BA71"/>
<path d="M57.4762 221.363C63.1248 221.363 67.7038 216.784 67.7038 211.135C67.7038 205.487 63.1248 200.908 57.4762 200.908C51.8277 200.908 47.2486 205.487 47.2486 211.135C47.2486 216.784 51.8277 221.363 57.4762 221.363Z" fill="#E6BA71"/>
<path d="M417.287 99.6297C424.913 99.6297 431.094 93.448 431.094 85.8224C431.094 78.1969 424.913 72.0151 417.287 72.0151C409.662 72.0151 403.48 78.1969 403.48 85.8224C403.48 93.448 409.662 99.6297 417.287 99.6297Z" fill="#E6BA71"/>
<path d="M387.137 94.3658C391.091 94.3658 394.297 91.1604 394.297 87.2064C394.297 83.2525 391.091 80.0471 387.137 80.0471C383.183 80.0471 379.978 83.2525 379.978 87.2064C379.978 91.1604 383.183 94.3658 387.137 94.3658Z" fill="#E6BA71"/>
<path d="M374.434 68.3724C378.387 68.3724 381.593 65.167 381.593 61.213C381.593 57.259 378.387 54.0537 374.434 54.0537C370.48 54.0537 367.274 57.259 367.274 61.213C367.274 65.167 370.48 68.3724 374.434 68.3724Z" fill="#E6BA71"/>
<path d="M404.991 67.4345C410.64 67.4345 415.219 62.8554 415.219 57.2069C415.219 51.5583 410.64 46.9792 404.991 46.9792C399.343 46.9792 394.764 51.5583 394.764 57.2069C394.764 62.8554 399.343 67.4345 404.991 67.4345Z" fill="#E6BA71"/>
<path d="M437.102 134.756H469.405" stroke="#E6BA71" stroke-width="3" stroke-miterlimit="10" stroke-linecap="round"/>
<path d="M437.102 144.066H469.405" stroke="#E6BA71" stroke-width="3" stroke-miterlimit="10" stroke-linecap="round"/>
<path d="M437.102 153.377H469.405" stroke="#E6BA71" stroke-width="3" stroke-miterlimit="10" stroke-linecap="round"/>
<path d="M66.8171 347.679H99.1199" stroke="#E6BA71" stroke-width="3" stroke-miterlimit="10" stroke-linecap="round"/>
<path d="M66.8171 356.989H99.1199" stroke="#E6BA71" stroke-width="3" stroke-miterlimit="10" stroke-linecap="round"/>
<path d="M66.8171 366.3H99.1199" stroke="#E6BA71" stroke-width="3" stroke-miterlimit="10" stroke-linecap="round"/>
<path d="M454.561 356.752C462.187 356.752 468.369 350.571 468.369 342.945C468.369 335.319 462.187 329.138 454.561 329.138C446.936 329.138 440.754 335.319 440.754 342.945C440.754 350.571 446.936 356.752 454.561 356.752Z" fill="#E6BA71"/>
<path d="M418.126 360.069C422.08 360.069 425.285 356.864 425.285 352.91C425.285 348.956 422.08 345.75 418.126 345.75C414.172 345.75 410.966 348.956 410.966 352.91C410.966 356.864 414.172 360.069 418.126 360.069Z" fill="#E6BA71"/>
<path d="M436.305 319.387C441.953 319.387 446.532 314.808 446.532 309.16C446.532 303.511 441.953 298.932 436.305 298.932C430.656 298.932 426.077 303.511 426.077 309.16C426.077 314.808 430.656 319.387 436.305 319.387Z" fill="#E6BA71"/>
</svg>
