<svg width="34" height="27" viewBox="0 0 34 27" fill="currentColor" xmlns="http://www.w3.org/2000/svg">
<path d="M30.6738 10.9693H8.03729L13.4663 5.17875C13.9108 4.70261 14.1605 4.05681 14.1605 3.38344C14.1605 2.71006 13.9108 2.06427 13.4663 1.58812C13.0218 1.11198 12.419 0.844482 11.7904 0.844482C11.1618 0.844482 10.5589 1.11198 10.1145 1.58812L0.672754 11.7026C0.457859 11.943 0.289407 12.2266 0.177064 12.537C-0.0590213 13.1526 -0.0590213 13.8431 0.177064 14.4587C0.289407 14.7691 0.457859 15.0527 0.672754 15.2932L10.1145 25.4076C10.3339 25.6446 10.595 25.8328 10.8826 25.9611C11.1702 26.0895 11.4788 26.1556 11.7904 26.1556C12.102 26.1556 12.4105 26.0895 12.6981 25.9611C12.9858 25.8328 13.2468 25.6446 13.4663 25.4076C13.6875 25.1726 13.8631 24.8929 13.983 24.5848C14.1028 24.2766 14.1645 23.9461 14.1645 23.6123C14.1645 23.2785 14.1028 22.948 13.983 22.6399C13.8631 22.3317 13.6875 22.0521 13.4663 21.817L8.03729 16.0265H30.6738C31.2998 16.0265 31.9002 15.7601 32.3429 15.2859C32.7855 14.8117 33.0342 14.1685 33.0342 13.4979C33.0342 12.8273 32.7855 12.1841 32.3429 11.7099C31.9002 11.2357 31.2998 10.9693 30.6738 10.9693Z"/>
</svg>