<svg width="31" height="33" viewBox="0 0 31 33" fill="none" xmlns="http://www.w3.org/2000/svg">
<path d="M5.2981 17.344C7.74337 24.3241 10.6334 22.0878 11.4113 21.6096C12.6339 20.858 13.5684 20.1295 13.8566 19.3069C14.6717 16.9802 11.8188 7.28562 10.1886 2.63223C8.55847 -2.02117 0 1.36024 0 4.18336C0 7.28559 2.85282 10.3639 5.2981 17.344Z" fill="#C4542C"/>
<path d="M19.9605 12.5906C15.8104 13.5201 15.514 12.2273 15.1434 10.2669C14.7729 7.5559 14.7729 7.16862 19.59 5.61948C24.4071 4.07034 27.742 9.10505 29.2242 11.8161C30.7063 14.527 32.3404 18.6284 29.2242 21.8855C27.742 23.4346 23.2991 27.6714 21.0722 27.3075C18.8489 26.9442 18.1078 23.4586 19.9605 21.8855C21.1682 20.8601 22.5544 19.973 24.0365 18.0126C24.6944 17.1425 24.1106 11.6611 19.9605 12.5906Z" fill="#C4542C"/>
<ellipse cx="12.5" cy="28.3295" rx="3.5" ry="4" fill="#C4542C"/>
</svg>
