<svg xmlns="http://www.w3.org/2000/svg" width="31" height="32" viewBox="0 0 31 32" fill="none">
<path d="M15.5 0.5C6.95313 0.5 0 7.45313 0 16C0 24.5469 6.95313 31.5 15.5 31.5C24.0469 31.5 31 24.5469 31 16C31 7.45312 24.0469 0.5 15.5 0.5ZM15.5 28.5C8.60742 28.5 3 22.8926 3 16C3 9.10742 8.60742 3.5 15.5 3.5C22.3926 3.5 28 9.10742 28 16C28 22.8926 22.3926 28.5 15.5 28.5Z" fill="#C4542C"/>
<path d="M15.5 7C14.6714 7 14 7.67188 14 8.5V18.0361C14 18.8643 14.6714 19.5361 15.5 19.5361C16.3286 19.5361 17 18.8643 17 18.0361V8.5C17 7.67188 16.3286 7 15.5 7ZM15.5 20.9111C14.6714 20.9111 14 21.583 14 22.4111V23.5C14 24.3281 14.6714 25 15.5 25C16.3286 25 17 24.3281 17 23.5V22.4111C17 21.583 16.3286 20.9111 15.5 20.9111Z" fill="#C4542C"/>
</svg>